<svg width="276" height="184" viewBox="0 0 276 184" fill="none" xmlns="http://www.w3.org/2000/svg">
<g clip-path="url(#clip0_1216_798)">
<path d="M267.104 0H8.89611C3.98292 0 0 3.9829 0 8.89605V175.104C0 180.017 3.98292 184 8.89611 184H267.104C272.017 184 276 180.017 276 175.104V8.89605C276 3.9829 272.017 0 267.104 0Z" fill="#000000"/>
<path d="M49.985 43.4774H41.2544V34.7469H32.5206V26.0164H23.79V17.2826H15.0594V78.4125H23.79V69.682H32.5206V60.9482H41.2544V52.2177H49.985V43.4872V43.4774Z" fill="white"/>
<path d="M23.7836 104.604H15.053V165.731H41.2512V157H23.7836V139.533H32.5141V130.802H23.7836V113.338H41.2512V104.607H23.7836V104.604Z" fill="white"/>
<path d="M84.9139 113.338V122.068H76.18V130.799H67.4494V122.068H58.7189V104.604H49.9883V130.799H58.7189V139.53H67.4494V165.728H76.18V139.53H84.9139V130.799H93.6444V104.604H84.9139V113.335V113.338Z" fill="white"/>
<path d="M137.307 113.338V139.533H128.577V148.267H119.843V139.533H111.112V104.607H102.382V148.27H111.112V157H119.843V165.731H128.577V157H137.307V148.27H146.038V104.607H137.307V113.338Z" fill="white"/>
<path d="M154.771 104.604V165.731H163.502V104.604H154.771Z" fill="white"/>
<path d="M176.997 161.94C176.997 161.635 177.098 161.353 177.302 161.096C177.507 160.814 177.724 160.587 177.955 160.408C178.007 161.122 178.237 161.687 178.643 162.093C179.052 162.476 179.613 162.667 180.327 162.667C180.966 162.667 181.693 162.553 182.511 162.323C183.329 162.093 184.082 161.761 184.77 161.327C185.484 160.892 186.072 160.369 186.533 159.756C187.016 159.116 187.26 158.415 187.26 157.649C187.26 156.731 186.903 155.988 186.185 155.426C185.471 154.865 184.563 154.391 183.466 154.008C182.369 153.599 181.181 153.216 179.902 152.859C178.623 152.502 177.439 152.067 176.338 151.557C175.264 151.048 174.358 150.409 173.619 149.643C172.904 148.877 172.544 147.88 172.544 146.653C172.288 145.939 172.366 145.222 172.775 144.508C173.21 143.768 173.81 143.077 174.576 142.441C175.368 141.801 176.273 141.201 177.296 140.639C178.318 140.078 179.301 139.617 180.246 139.26C181.216 138.903 182.086 138.634 182.852 138.455C183.618 138.277 184.141 138.238 184.423 138.342C184.705 138.445 184.666 138.699 184.309 139.108C183.978 139.516 183.186 140.104 181.934 140.87C181.755 140.87 181.577 140.857 181.398 140.831C181.22 140.805 181.106 140.678 181.054 140.448C180.493 140.652 179.827 140.97 179.061 141.405C178.295 141.84 177.555 142.35 176.838 142.937C176.15 143.499 175.559 144.125 175.076 144.813C174.592 145.479 174.349 146.141 174.349 146.806C174.349 147.854 174.706 148.682 175.423 149.295C176.163 149.883 177.072 150.392 178.143 150.827C179.24 151.236 180.428 151.619 181.706 151.976C182.985 152.307 184.17 152.716 185.27 153.203C186.367 153.664 187.276 154.277 187.99 155.043C188.704 155.783 189.064 156.767 189.064 157.993C189.064 158.681 188.899 159.321 188.568 159.908C188.237 160.47 187.802 160.996 187.266 161.479C186.731 161.94 186.117 162.349 185.426 162.706C184.738 163.063 184.021 163.371 183.281 163.624C182.567 163.881 181.849 164.072 181.135 164.199C180.447 164.325 179.834 164.39 179.295 164.39C179.039 164.39 178.772 164.312 178.49 164.16C178.234 163.981 177.994 163.764 177.763 163.508C177.559 163.251 177.38 162.985 177.228 162.703C177.075 162.42 176.997 162.167 176.997 161.937V161.94ZM201.018 164.046C200.94 162.258 200.878 160.408 200.826 158.49C200.774 156.575 200.687 154.647 200.557 152.703C200.456 150.736 200.287 148.796 200.06 146.881C199.856 144.94 199.586 143.074 199.255 141.285C199.155 140.876 199.064 140.62 198.986 140.519C198.908 140.419 198.716 140.367 198.411 140.367C197.798 140.367 197.211 140.467 196.649 140.672C196.088 140.85 195.513 141.055 194.926 141.285C194.364 141.516 193.803 141.733 193.241 141.938C192.68 142.116 192.079 142.207 191.44 142.207C191.109 142.207 190.839 142.155 190.635 142.054C190.431 141.928 190.33 141.672 190.33 141.289C190.33 141.11 190.343 140.932 190.369 140.753C190.421 140.575 190.573 140.471 190.83 140.448L198.34 138.608C198.288 138.046 198.327 137.689 198.454 137.533C198.606 137.355 198.85 137.264 199.181 137.264C199.616 137.264 199.986 137.355 200.291 137.533C200.596 137.686 200.979 137.764 201.44 137.764C202.588 137.764 203.724 137.673 204.851 137.495C205.974 137.29 207.1 137.073 208.223 136.842C209.346 136.586 210.459 136.368 211.556 136.19C212.679 135.985 213.805 135.885 214.928 135.885V136.268C214.928 136.446 214.915 136.638 214.889 136.842C214.889 137.047 214.837 137.238 214.737 137.417C214.636 137.595 214.506 137.699 214.354 137.722C214.071 137.748 213.653 137.8 213.088 137.874C212.552 137.926 211.926 138.001 211.212 138.105C210.524 138.183 209.794 138.27 209.028 138.374C208.262 138.452 207.522 138.54 206.804 138.643C206.09 138.721 205.451 138.809 204.89 138.913C204.354 138.991 203.945 139.039 203.663 139.065C203.432 139.117 203.14 139.192 202.78 139.296C202.449 139.374 202.115 139.461 201.784 139.565C201.452 139.643 201.157 139.718 200.901 139.796C200.67 139.873 200.557 139.922 200.557 139.948V140.445L202.78 163.547V164.043C202.754 164.095 202.689 164.157 202.588 164.235C202.511 164.287 202.397 164.335 202.244 164.387C202.092 164.413 201.913 164.413 201.709 164.387C201.504 164.335 201.274 164.222 201.021 164.043L201.018 164.046ZM211.326 157.302C211.3 156.893 211.248 156.293 211.173 155.501C211.095 154.683 211.007 153.764 210.904 152.742C210.826 151.72 210.738 150.649 210.634 149.523C210.556 148.4 210.469 147.325 210.365 146.303C210.287 145.281 210.212 144.362 210.134 143.544C210.057 142.726 210.008 142.126 209.982 141.743C209.982 141.691 209.969 141.551 209.943 141.321V140.824H211.322C211.348 141.155 211.374 141.681 211.4 142.395C211.452 143.083 211.501 143.866 211.553 144.732C211.631 145.602 211.692 146.533 211.744 147.53C211.796 148.5 211.845 149.419 211.897 150.288C211.975 151.158 212.036 151.95 212.088 152.664C212.14 153.352 212.179 153.865 212.202 154.196C212.28 154.962 212.393 155.845 212.546 156.841C212.724 157.838 213.02 158.769 213.429 159.639C213.838 160.483 214.36 161.197 215 161.784C215.639 162.372 216.457 162.667 217.453 162.667C218.297 162.667 219.024 162.398 219.637 161.862C220.277 161.327 220.812 160.635 221.247 159.795C221.682 158.925 222.026 157.967 222.283 156.922C222.565 155.874 222.779 154.855 222.935 153.859C223.113 152.836 223.227 151.905 223.279 151.061C223.357 150.191 223.393 149.516 223.393 149.029C223.393 147.75 223.292 146.553 223.087 145.427C222.909 144.278 222.818 143.116 222.818 141.941C222.818 141.659 222.909 141.48 223.087 141.405C223.292 141.305 223.509 141.253 223.74 141.253C223.792 141.253 223.866 141.266 223.97 141.292H224.201C224.353 141.853 224.457 142.366 224.506 142.824C224.558 143.259 224.597 143.681 224.619 144.089C224.671 144.498 224.697 144.92 224.697 145.355V146.774C224.697 147.514 224.671 148.471 224.619 149.646C224.593 150.795 224.506 152.022 224.35 153.323C224.197 154.625 223.954 155.942 223.623 157.27C223.318 158.571 222.883 159.759 222.322 160.833C221.786 161.908 221.082 162.774 220.215 163.439C219.371 164.105 218.352 164.436 217.151 164.436C216.259 164.436 215.467 164.218 214.776 163.783C214.088 163.323 213.497 162.748 213.013 162.06C212.552 161.372 212.169 160.603 211.864 159.762C211.582 158.918 211.403 158.101 211.329 157.309L211.326 157.302ZM232.818 163.28C232.818 163.203 233.061 163.076 233.545 162.897C234.054 162.719 234.668 162.488 235.385 162.209C236.125 161.904 236.917 161.531 237.761 161.099C238.631 160.664 239.422 160.142 240.136 159.529C240.876 158.915 241.49 158.201 241.977 157.383C242.486 156.565 242.743 155.634 242.743 154.586C242.743 153.872 242.525 153.08 242.09 152.21C241.655 151.317 241.094 150.435 240.406 149.565C239.718 148.695 238.913 147.854 237.991 147.036C237.099 146.193 236.19 145.453 235.271 144.813C234.353 144.174 233.444 143.664 232.552 143.281C231.682 142.898 230.916 142.707 230.254 142.707C230.254 144.213 230.319 145.722 230.445 147.228C230.598 148.708 230.75 150.204 230.906 151.71C231.062 153.216 231.198 154.725 231.328 156.231C231.481 157.711 231.558 159.22 231.558 160.752C231.558 161.083 231.519 161.353 231.445 161.557C231.393 161.761 231.127 161.966 230.64 162.17L230.218 161.748L228.417 142.171C228.365 142.171 228.238 142.119 228.034 142.019C227.855 141.892 227.664 141.762 227.459 141.636C227.255 141.483 227.063 141.318 226.885 141.139C226.706 140.961 226.615 140.795 226.615 140.643C226.615 140.49 226.729 140.299 226.959 140.068C227.216 139.838 227.495 139.62 227.803 139.416C228.108 139.185 228.404 138.994 228.686 138.841C228.968 138.663 229.17 138.572 229.299 138.572C229.682 138.572 229.913 138.663 229.988 138.841C230.088 139.02 230.14 139.237 230.14 139.494C230.14 139.724 230.153 139.977 230.179 140.26C230.205 140.516 230.358 140.708 230.64 140.834C231.532 141.344 232.48 141.882 233.477 142.444C234.473 142.979 235.469 143.58 236.466 144.245C237.488 144.885 238.446 145.573 239.338 146.313C240.257 147.053 241.061 147.871 241.753 148.766C242.441 149.636 242.993 150.581 243.402 151.603C243.81 152.599 244.015 153.696 244.015 154.897C244.015 156.02 243.71 157.156 243.096 158.308C242.483 159.431 241.704 160.454 240.76 161.372C239.815 162.265 238.754 163.008 237.579 163.595C236.43 164.157 235.307 164.439 234.207 164.439C233.876 164.439 233.554 164.338 233.249 164.134C232.967 163.93 232.827 163.65 232.827 163.29L232.818 163.28ZM247.111 163.93C247.085 163.446 247.02 162.677 246.92 161.632C246.819 160.557 246.702 159.347 246.576 157.993C246.475 156.64 246.345 155.222 246.193 153.742C246.066 152.262 245.936 150.856 245.81 149.526C245.709 148.172 245.605 146.959 245.505 145.887C245.427 144.813 245.378 144.034 245.352 143.551V143.281C245.352 143.155 245.339 143.012 245.313 142.859V141.211C245.339 141.032 245.352 140.88 245.352 140.75V140.445C245.404 140.188 245.518 140.036 245.696 139.984C245.875 139.932 246.053 139.906 246.232 139.906C246.284 139.906 246.358 139.919 246.462 139.945H246.693L248.455 161.284C248.481 161.362 248.507 161.476 248.533 161.628C248.585 161.781 248.633 161.959 248.685 162.164C248.763 162.368 248.812 162.547 248.838 162.699C248.864 162.852 248.89 162.969 248.916 163.043V163.274C248.916 163.426 248.864 163.566 248.763 163.696C248.663 163.826 248.533 163.939 248.38 164.04C248.228 164.14 248.075 164.231 247.919 164.309C247.793 164.361 247.676 164.387 247.575 164.387C247.497 164.387 247.397 164.335 247.27 164.235C247.17 164.108 247.118 164.004 247.118 163.93H247.111ZM250.175 153.738C250.302 152.69 250.418 151.632 250.519 150.558C250.646 149.461 250.801 148.387 250.98 147.338C251.158 146.264 251.402 145.258 251.707 144.31C252.038 143.34 252.486 142.509 253.047 141.821C253.635 141.107 254.362 140.532 255.232 140.097C256.101 139.663 257.172 139.445 258.451 139.445C259.5 139.445 260.418 139.676 261.21 140.133C262.028 140.568 262.716 141.155 263.277 141.895C263.865 142.635 264.339 143.492 264.696 144.463C265.053 145.407 265.335 146.378 265.54 147.374C265.77 148.37 265.935 149.367 266.036 150.363C266.137 151.359 266.189 152.265 266.189 153.083C266.189 154.436 265.971 155.79 265.536 157.143C265.101 158.47 264.475 159.684 263.66 160.781C262.868 161.856 261.885 162.735 260.71 163.426C259.561 164.092 258.247 164.423 256.764 164.423C255.485 164.423 254.427 164.079 253.583 163.388C252.739 162.696 252.064 161.843 251.551 160.82C251.042 159.772 250.681 158.649 250.477 157.448C250.272 156.247 250.172 155.15 250.172 154.154V153.732L250.175 153.738ZM251.438 154.086C251.438 154.978 251.528 155.962 251.707 157.036C251.885 158.084 252.19 159.055 252.625 159.947C253.06 160.84 253.648 161.596 254.388 162.206C255.154 162.794 256.111 163.089 257.26 163.089C258.613 163.089 259.762 162.745 260.707 162.054C261.677 161.366 262.469 160.509 263.083 159.486C263.722 158.438 264.18 157.302 264.462 156.075C264.744 154.848 264.884 153.7 264.884 152.628C264.884 151.632 264.806 150.457 264.653 149.104C264.501 147.724 264.18 146.423 263.696 145.196C263.235 143.969 262.56 142.937 261.664 142.093C260.794 141.224 259.672 140.792 258.292 140.792C257.322 140.792 256.478 141.022 255.764 141.48C255.05 141.941 254.436 142.554 253.924 143.32C253.414 144.06 252.992 144.917 252.658 145.887C252.353 146.832 252.109 147.802 251.931 148.799C251.752 149.769 251.626 150.727 251.548 151.671C251.47 152.59 251.434 153.394 251.434 154.086H251.438Z" fill="white"/>
</g>
<defs>
<clipPath id="clip0_1216_798">
<rect width="276" height="184" fill="white"/>
</clipPath>
</defs>
</svg>
