<svg width="223" height="27" viewBox="0 0 223 27" fill="none" xmlns="http://www.w3.org/2000/svg">
<path d="M-3.317e-05 26.5398V0.357976H6.32809V10.8665H16.6449V0.357976H22.9602V26.5398H16.6449V16.0185H6.32809V26.5398H-3.317e-05ZM33.2578 0.357976V26.5398H26.9297V0.357976H33.2578ZM36.3739 5.49718V0.357976H58.5032V5.49718H50.5642V26.5398H44.3256V5.49718H36.3739ZM68.4716 5.49718V0.357976H90.6008V5.49718H82.6619V26.5398H76.4233V5.49718H68.4716ZM117.208 13.4489C117.208 16.3296 116.654 18.7713 115.546 20.7742C114.438 22.777 112.938 24.2983 111.046 25.3381C109.162 26.3779 107.049 26.8977 104.705 26.8977C102.353 26.8977 100.235 26.3736 98.3512 25.3253C96.4677 24.277 94.9719 22.7557 93.864 20.7614C92.7645 18.7585 92.2148 16.321 92.2148 13.4489C92.2148 10.5682 92.7645 8.12644 93.864 6.1236C94.9719 4.12076 96.4677 2.59945 98.3512 1.55968C100.235 0.519908 102.353 2.12193e-05 104.705 2.12193e-05C107.049 2.12193e-05 109.162 0.519908 111.046 1.55968C112.938 2.59945 114.438 4.12076 115.546 6.1236C116.654 8.12644 117.208 10.5682 117.208 13.4489ZM110.739 13.4489C110.739 11.7443 110.496 10.304 110.01 9.12786C109.533 7.95173 108.843 7.0611 107.939 6.45599C107.044 5.85087 105.966 5.54832 104.705 5.54832C103.452 5.54832 102.374 5.85087 101.47 6.45599C100.567 7.0611 99.8725 7.95173 99.3867 9.12786C98.9094 10.304 98.6708 11.7443 98.6708 13.4489C98.6708 15.1534 98.9094 16.5938 99.3867 17.7699C99.8725 18.946 100.567 19.8367 101.47 20.4418C102.374 21.0469 103.452 21.3495 104.705 21.3495C105.966 21.3495 107.044 21.0469 107.939 20.4418C108.843 19.8367 109.533 18.946 110.01 17.7699C110.496 16.5938 110.739 15.1534 110.739 13.4489ZM128.637 26.5398V0.357976H139.452C141.412 0.357976 143.104 0.741499 144.527 1.50854C145.959 2.26707 147.063 3.32815 147.838 4.69178C148.614 6.0469 149.002 7.6236 149.002 9.4219C149.002 11.2287 148.605 12.8097 147.813 14.1648C147.029 15.5114 145.908 16.5554 144.451 17.2969C142.993 18.0384 141.263 18.4091 139.26 18.4091H132.587V13.4233H138.084C139.039 13.4233 139.836 13.2571 140.475 12.9247C141.122 12.5924 141.613 12.1279 141.945 11.5313C142.277 10.9262 142.444 10.223 142.444 9.4219C142.444 8.61224 142.277 7.91337 141.945 7.32531C141.613 6.72872 141.122 6.26849 140.475 5.94462C139.827 5.62076 139.03 5.45883 138.084 5.45883H134.965V26.5398H128.637ZM152.121 26.5398V0.357976H158.449V21.4006H169.341V26.5398H152.121ZM178.632 26.5398H171.831L180.665 0.357976H189.089L197.923 26.5398H191.122L184.973 6.95457H184.768L178.632 26.5398ZM177.724 16.2358H191.94V21.0426H177.724V16.2358ZM196.766 0.357976H203.836L209.371 11.3139H209.602L215.137 0.357976H222.207L212.631 17.7955V26.5398H206.342V17.7955L196.766 0.357976Z" fill="#141414"/>
</svg>
