<svg width="32" height="32" viewBox="0 0 32 32" fill="none" xmlns="http://www.w3.org/2000/svg">
<path d="M31.9844 7.4031C31.842 11.0042 29.6663 15.9353 25.4583 22.1939C21.1076 28.7315 17.4266 32 14.4155 32C12.5507 32 10.9716 30.0098 9.6826 26.028C8.8211 22.3781 7.96073 18.7285 7.09961 15.0787C6.14173 11.0991 5.11486 9.10675 4.01699 9.10675C3.77761 9.10675 2.93987 9.68915 1.50562 10.8492L0 8.60685C1.56734 7.01588 3.12404 5.41103 4.66999 3.79244C6.77623 1.68812 8.35748 0.581581 9.41122 0.469658C11.9018 0.193168 13.4346 2.16119 14.01 6.37416C14.6317 10.9194 15.0618 13.7466 15.3037 14.8532C16.0215 18.6241 16.8112 20.5071 17.6743 20.5071C18.3441 20.5071 19.3502 19.2844 20.6916 16.8385C22.0318 14.3919 22.7496 12.5306 22.8466 11.252C23.0372 9.14079 22.3191 8.08257 20.6916 8.08257C19.9256 8.08257 19.1357 8.28637 18.3233 8.6892C19.8958 2.73393 22.9006 -0.158321 27.3358 0.00667864C30.6238 0.118169 32.1738 2.58364 31.9844 7.4031Z" fill="#32B8E8"/>
</svg>
